<?xml version="1.0" standalone="no"?>
<!DOCTYPE svg PUBLIC "-//W3C//DTD SVG 20010904//EN"
 "http://www.w3.org/TR/2001/REC-SVG-20010904/DTD/svg10.dtd">
<svg version="1.0" xmlns="http://www.w3.org/2000/svg"
 width="300.000000pt" height="249.000000pt" viewBox="0 0 300.000000 249.000000"
 preserveAspectRatio="xMidYMid meet">

<g transform="translate(0.000000,249.000000) scale(0.100000,-0.100000)"
fill="#000000" stroke="none">
<path d="M1405 2484 c-255 -28 -500 -140 -691 -318 -64 -59 -184 -202 -184
-219 0 -4 13 -7 29 -7 24 0 39 12 80 64 322 405 887 540 1347 322 137 -65 226
-128 329 -231 83 -84 120 -131 189 -242 27 -43 39 -50 65 -34 12 8 6 22 -28
80 -172 290 -461 497 -792 566 -74 16 -273 26 -344 19z"/>
<path d="M1385 2339 c-232 -30 -443 -138 -616 -316 l-84 -86 58 -14 c109 -24
303 -135 409 -232 132 -121 218 -323 248 -577 11 -95 25 -161 39 -176 3 -4 6
128 6 292 0 270 2 301 17 316 15 15 21 16 43 4 50 -27 53 -41 64 -316 6 -143
11 -331 11 -418 0 -88 2 -157 5 -154 3 2 9 63 15 134 23 303 69 446 197 619
155 209 321 324 520 361 136 25 131 18 77 99 -64 96 -222 250 -316 309 -214
132 -451 185 -693 155z"/>
<path d="M30 1921 c0 -4 23 -43 51 -86 28 -43 64 -102 81 -131 16 -30 32 -54
35 -54 7 0 -52 104 -97 170 -20 30 -42 65 -48 77 -11 20 -10 21 31 16 54 -7
45 2 -10 11 -24 3 -43 2 -43 -3z"/>
<path d="M167 1903 c18 -2 50 -2 70 0 21 2 7 4 -32 4 -38 0 -55 -2 -38 -4z"/>
<path d="M418 1903 c28 -2 76 -2 105 0 28 2 5 3 -53 3 -58 0 -81 -1 -52 -3z"/>
<path d="M633 1903 c15 -2 37 -2 50 0 12 2 0 4 -28 4 -27 0 -38 -2 -22 -4z"/>
<path d="M760 1882 c133 -45 295 -145 390 -242 61 -61 79 -90 149 -240 l11
-25 -6 25 c-14 60 -80 174 -136 235 -92 100 -330 245 -428 260 -25 4 -19 0 20
-13z"/>
<path d="M2936 1869 c-15 -12 -48 -30 -74 -40 -26 -10 -40 -18 -31 -19 10 0
42 13 72 29 49 26 56 27 60 13 3 -10 5 -5 6 11 1 33 1 33 -33 6z"/>
<path d="M122 1858 c3 -7 38 -37 79 -66 41 -30 76 -58 77 -63 2 -5 -8 -9 -23
-9 -15 0 -24 -4 -20 -10 3 -5 31 -10 60 -10 43 0 67 -7 115 -34 70 -38 64 -46
-33 -46 -49 0 -58 -2 -48 -12 8 -9 43 -13 101 -13 l89 0 106 -69 c132 -85 128
-92 -57 -82 -79 4 -127 3 -124 -2 9 -15 163 -34 252 -31 l83 3 86 -62 c47 -34
85 -66 85 -72 0 -16 -70 -23 -179 -17 -83 4 -131 14 -219 41 -63 20 -116 36
-118 36 -2 0 -4 -6 -4 -14 0 -16 68 -44 188 -77 61 -17 111 -22 240 -25 l163
-3 37 -29 c58 -47 76 -69 61 -78 -24 -15 -379 -8 -457 8 -78 17 -96 5 -29 -18
90 -31 278 -42 442 -24 58 6 88 5 110 -4 39 -17 108 -84 173 -170 63 -83 67
-72 10 26 -27 45 -78 108 -135 165 -51 50 -94 102 -97 115 -3 13 -12 59 -20
103 -18 93 -110 294 -101 220 2 -22 16 -68 29 -101 28 -67 53 -190 43 -201
-11 -10 -87 68 -94 97 -9 34 -132 323 -144 335 -13 13 -12 -25 2 -66 7 -19 32
-80 56 -137 24 -57 43 -108 41 -113 -4 -12 -89 52 -124 92 -11 13 -33 58 -48
99 -25 72 -102 207 -112 198 -2 -3 18 -58 46 -122 27 -65 50 -122 50 -127 0
-10 -138 76 -225 141 -41 30 -61 55 -86 105 -50 102 -84 114 -40 14 11 -24 18
-45 16 -47 -4 -5 -83 36 -119 61 -15 11 -35 36 -44 56 -14 31 -16 33 -20 14
l-3 -22 -53 29 c-58 33 -70 36 -64 18z"/>
<path d="M2952 1805 c0 -16 2 -22 5 -12 2 9 2 23 0 30 -3 6 -5 -1 -5 -18z"/>
<path d="M2763 1803 c9 -2 25 -2 35 0 9 3 1 5 -18 5 -19 0 -27 -2 -17 -5z"/>
<path d="M2868 1773 c-25 -21 -73 -68 -108 -105 -66 -72 -86 -84 -70 -42 12
31 13 64 1 64 -8 0 -61 -109 -61 -127 0 -5 -27 -35 -61 -68 -71 -69 -71 -63
-3 84 49 105 53 123 23 95 -23 -21 -104 -182 -115 -229 -6 -28 -145 -175 -165
-175 -13 0 6 48 69 180 74 155 93 200 83 200 -9 0 -117 -188 -160 -279 -17
-36 -33 -84 -37 -107 -6 -44 -30 -72 -106 -129 l-38 -27 6 33 c11 60 80 261
123 355 41 92 49 124 31 124 -29 0 -200 -417 -200 -489 0 -18 -6 -44 -14 -59
-16 -30 -118 -122 -136 -122 -17 0 -6 64 37 230 47 180 49 195 23 147 -37 -67
-91 -247 -103 -343 -12 -88 -14 -95 -52 -134 -21 -22 -43 -40 -49 -40 -14 0 1
145 22 220 11 36 33 101 51 145 33 84 37 105 22 105 -37 0 -141 -325 -141
-438 0 -50 -6 -66 -61 -159 -34 -57 -59 -106 -57 -109 3 -3 35 27 72 67 l66
71 212 2 c220 2 285 12 333 51 19 16 19 16 -5 11 -161 -33 -397 -47 -469 -27
-23 6 -22 8 23 49 43 39 49 42 103 42 127 0 365 39 379 61 8 13 -55 11 -176
-6 -58 -8 -132 -14 -165 -14 l-60 0 50 45 c28 25 59 47 70 49 11 2 105 14 209
25 104 11 196 25 205 31 16 10 -32 9 -271 -8 -57 -4 -88 -2 -88 4 0 6 25 31
55 56 47 39 64 47 113 52 31 3 80 11 107 17 61 13 185 68 168 75 -7 2 -52 -7
-100 -20 -104 -29 -173 -41 -173 -29 0 10 96 95 145 129 24 17 50 22 130 26
97 5 205 34 221 58 12 20 -4 20 -62 0 -33 -10 -97 -22 -144 -26 l-85 -6 79 75
c77 74 81 76 129 76 54 0 137 34 137 57 0 16 1 16 -50 -2 -23 -8 -52 -15 -63
-15 -19 0 -17 4 13 35 18 19 62 49 97 67 35 18 63 37 63 42 0 4 -6 6 -12 3
-62 -23 -63 -20 -9 42 30 34 51 64 49 67 -3 2 -25 -12 -50 -33z"/>
<path d="M2663 1793 c15 -2 39 -2 55 0 15 2 2 4 -28 4 -30 0 -43 -2 -27 -4z"/>
<path d="M2558 1783 c12 -2 32 -2 45 0 12 2 2 4 -23 4 -25 0 -35 -2 -22 -4z"/>
<path d="M2483 1773 c9 -2 25 -2 35 0 9 3 1 5 -18 5 -19 0 -27 -2 -17 -5z"/>
<path d="M2423 1763 c9 -2 23 -2 30 0 6 3 -1 5 -18 5 -16 0 -22 -2 -12 -5z"/>
<path d="M2942 1740 c0 -19 2 -27 5 -17 2 9 2 25 0 35 -3 9 -5 1 -5 -18z"/>
<path d="M2363 1753 c9 -2 23 -2 30 0 6 3 -1 5 -18 5 -16 0 -22 -2 -12 -5z"/>
<path d="M2228 1726 c-161 -57 -284 -158 -422 -346 -47 -63 -86 -131 -86 -147
0 -4 13 16 29 44 44 80 98 150 181 237 114 119 227 189 359 221 31 7 45 14 31
14 -14 0 -55 -10 -92 -23z"/>
<path d="M2926 1664 c-4 -20 -5 -38 -3 -40 3 -3 8 11 11 32 4 20 5 38 3 40 -3
3 -8 -11 -11 -32z"/>
<path d="M210 1619 c0 -4 11 -31 25 -60 14 -30 22 -43 19 -29 -7 26 -43 100
-44 89z"/>
<path d="M2911 1594 c0 -11 3 -14 6 -6 3 7 2 16 -1 19 -3 4 -6 -2 -5 -13z"/>
<path d="M2886 1509 c-9 -34 -15 -63 -13 -66 2 -2 12 24 21 58 10 33 16 63 13
65 -2 2 -11 -24 -21 -57z"/>
<path d="M1480 1520 c0 -6 7 -10 15 -10 8 0 17 -10 19 -22 3 -13 7 -32 9 -43
3 -14 5 -12 6 8 0 16 -3 36 -9 46 -11 21 -40 36 -40 21z"/>
<path d="M260 1497 c0 -20 67 -191 93 -237 67 -118 272 -281 397 -314 14 -4
-8 9 -49 28 -133 65 -259 169 -328 272 -18 28 -50 95 -69 150 -32 90 -44 117
-44 101z"/>
<path d="M1474 1230 c0 -151 2 -213 3 -137 2 75 2 199 0 275 -1 75 -3 13 -3
-138z"/>
<path d="M1534 1275 c0 -66 1 -92 3 -57 2 34 2 88 0 120 -2 31 -3 3 -3 -63z"/>
<path d="M1321 1335 c0 -5 9 -44 20 -85 10 -41 17 -57 14 -35 -5 40 -33 139
-34 120z"/>
<path d="M2802 1258 c-17 -45 -30 -84 -28 -86 2 -2 18 33 36 78 17 45 29 84
27 86 -2 2 -18 -33 -35 -78z"/>
<path d="M323 1147 c22 -353 215 -705 504 -918 123 -92 303 -171 463 -205 117
-24 344 -24 460 0 418 89 754 388 899 799 17 49 31 91 31 95 0 3 -18 -11 -39
-32 -23 -22 -50 -65 -67 -104 -108 -262 -307 -478 -549 -600 -672 -338 -1468
60 -1626 813 -10 50 -19 108 -19 129 0 36 -41 126 -57 126 -3 0 -3 -46 0 -103z"/>
<path d="M1685 1139 c-14 -44 -25 -88 -24 -97 0 -9 10 17 23 58 12 41 26 85
30 98 4 12 5 22 2 22 -3 0 -17 -36 -31 -81z"/>
<path d="M1363 1135 c0 -22 2 -30 4 -17 2 12 2 30 0 40 -3 9 -5 -1 -4 -23z"/>
<path d="M2716 1062 c-43 -85 -63 -110 -155 -202 -116 -114 -233 -199 -324
-232 -31 -11 -56 -23 -53 -25 9 -9 126 46 197 92 41 27 124 99 185 160 95 94
117 123 158 203 26 52 46 95 44 97 -2 2 -25 -40 -52 -93z"/>
<path d="M1542 859 c-2 -198 1 -259 11 -273 13 -17 15 -16 40 14 15 17 27 39
27 48 -1 10 -7 4 -14 -13 -12 -28 -43 -62 -48 -54 -1 2 -5 123 -8 269 l-6 265
-2 -256z"/>
<path d="M475 1033 c20 -133 105 -331 195 -452 178 -241 434 -392 729 -431 45
-6 85 -9 88 -6 3 2 -20 19 -51 36 -62 35 -64 41 -40 115 13 38 17 91 17 215 0
194 -8 228 -78 326 l-48 66 -46 -6 c-25 -4 -91 -11 -145 -17 -208 -23 -390 27
-565 156 l-64 47 8 -49z"/>
<path d="M1373 1045 c0 -22 2 -30 4 -17 2 12 2 30 0 40 -3 9 -5 -1 -4 -23z"/>
<path d="M1652 1000 c0 -14 2 -19 5 -12 2 6 2 18 0 25 -3 6 -5 1 -5 -13z"/>
<path d="M1381 990 c-1 -19 42 -109 64 -135 10 -12 7 -4 -5 18 -12 21 -31 59
-41 85 -10 26 -18 40 -18 32z"/>
<path d="M1643 935 c0 -22 2 -30 4 -17 2 12 2 30 0 40 -3 9 -5 -1 -4 -23z"/>
<path d="M795 930 c11 -5 29 -8 40 -8 16 0 15 2 -5 8 -34 11 -60 11 -35 0z"/>
<path d="M1267 933 c34 -4 63 -34 122 -127 17 -28 31 -46 31 -40 0 13 -67 113
-98 147 -18 19 -35 27 -56 25 l-31 -1 32 -4z"/>
<path d="M1193 923 c9 -2 23 -2 30 0 6 3 -1 5 -18 5 -16 0 -22 -2 -12 -5z"/>
<path d="M873 913 c9 -2 23 -2 30 0 6 3 -1 5 -18 5 -16 0 -22 -2 -12 -5z"/>
<path d="M1108 913 c12 -2 32 -2 45 0 12 2 2 4 -23 4 -25 0 -35 -2 -22 -4z"/>
<path d="M968 903 c23 -2 59 -2 80 0 20 2 1 4 -43 4 -44 0 -61 -2 -37 -4z"/>
<path d="M1482 873 c-1 -24 -7 -43 -13 -43 -5 0 -7 -5 -3 -11 13 -21 25 8 21
52 l-4 44 -1 -42z"/>
<path d="M1633 810 c0 -36 2 -50 4 -32 2 17 2 47 0 65 -2 17 -4 3 -4 -33z"/>
<path d="M1622 700 c0 -19 2 -27 5 -17 2 9 2 25 0 35 -3 9 -5 1 -5 -18z"/>
<path d="M1432 700 c0 -14 2 -19 5 -12 2 6 2 18 0 25 -3 6 -5 1 -5 -13z"/>
<path d="M2435 700 c-15 -24 -167 -103 -250 -129 -117 -38 -215 -51 -380 -51
l-134 0 -39 -52 c-22 -29 -45 -64 -52 -77 -15 -29 -27 -236 -14 -243 13 -8
140 9 214 28 223 59 439 205 579 391 50 67 96 143 87 143 -3 0 -8 -5 -11 -10z"/>
<path d="M1443 630 c0 -25 2 -35 4 -22 2 12 2 32 0 45 -2 12 -4 2 -4 -23z"/>
<path d="M2125 590 c-13 -5 -14 -9 -5 -9 8 0 24 4 35 9 13 5 14 9 5 9 -8 0
-24 -4 -35 -9z"/>
<path d="M1453 525 c0 -33 2 -45 4 -27 2 18 2 45 0 60 -2 15 -4 0 -4 -33z"/>
<path d="M2030 570 c-34 -7 -34 -7 -5 -8 17 0 41 4 55 8 33 11 0 11 -50 0z"/>
<path d="M1626 516 c-36 -39 -83 -106 -74 -106 2 0 23 26 46 58 24 33 53 64
65 70 13 7 84 13 172 15 l150 3 -159 2 -160 2 -40 -44z"/>
<path d="M1443 395 c0 -27 2 -38 4 -22 2 15 2 37 0 50 -2 12 -4 0 -4 -28z"/>
<path d="M1536 385 c-3 -9 -5 -31 -5 -48 1 -27 3 -24 9 13 8 48 6 61 -4 35z"/>
<path d="M1427 310 c-4 -19 -10 -47 -13 -62 -4 -19 -2 -28 6 -28 7 0 35 -16
62 -36 28 -19 51 -34 51 -32 1 2 -1 35 -4 73 l-5 70 -2 -63 -2 -63 -47 32
c-27 18 -50 33 -51 35 -2 1 1 19 8 38 6 20 10 44 8 53 -2 11 -7 4 -11 -17z"/>
</g>
</svg>
